<svg xmlns="http://www.w3.org/2000/svg" version="1.1" xmlns:xlink="http://www.w3.org/1999/xlink" xmlns:svgjs="http://svgjs.dev/svgjs" viewBox="0 0 800 800"><g fill="hsl(230, 55%, 40%)"><circle r="0.5" cx="405" cy="400"></circle><circle r="0.5" cx="405" cy="402"></circle><circle r="0.5" cx="404" cy="404"></circle><circle r="0.5" cx="403" cy="405"></circle><circle r="0.5" cx="401" cy="406"></circle><circle r="0.5" cx="398" cy="407"></circle><circle r="0.5" cx="396" cy="406"></circle><circle r="0.5" cx="394" cy="404"></circle><circle r="0.5" cx="392" cy="402"></circle><circle r="0.5" cx="392" cy="399"></circle><circle r="0.5" cx="392" cy="396"></circle><circle r="0.5" cx="394" cy="393"></circle><circle r="0.5" cx="396" cy="391"></circle><circle r="0.5" cx="400" cy="390"></circle><circle r="0.5" cx="403" cy="390"></circle><circle r="0.5" cx="407" cy="392"></circle><circle r="0.5" cx="409" cy="395"></circle><circle r="0.5" cx="411" cy="398"></circle><circle r="0.5" cx="411" cy="402"></circle><circle r="0.5" cx="410" cy="406"></circle><circle r="0.5" cx="407" cy="410"></circle><circle r="0.5" cx="404" cy="412"></circle><circle r="0.5" cx="399" cy="413"></circle><circle r="0.5" cx="395" cy="412"></circle><circle r="0.5" cx="390" cy="410"></circle><circle r="0.5" cx="387" cy="406"></circle><circle r="0.5" cx="386" cy="401"></circle><circle r="0.5" cx="386" cy="396"></circle><circle r="0.5" cx="388" cy="391"></circle><circle r="0.5" cx="392" cy="387"></circle><circle r="0.5" cx="397" cy="385"></circle><circle r="0.5" cx="403" cy="384"></circle><circle r="0.5" cx="408" cy="386"></circle><circle r="0.5" cx="413" cy="389"></circle><circle r="0.5" cx="416" cy="394"></circle><circle r="0.5" cx="418" cy="401"></circle><circle r="0.5" cx="417" cy="407"></circle><circle r="0.5" cx="413" cy="413"></circle><circle r="0.5" cx="408" cy="417"></circle><circle r="0.5" cx="402" cy="419"></circle><circle r="0.5" cx="395" cy="419"></circle><circle r="0.5" cx="388" cy="416"></circle><circle r="0.5" cx="383" cy="411"></circle><circle r="0.5" cx="380" cy="405"></circle><circle r="0.5" cx="379" cy="397"></circle><circle r="0.5" cx="381" cy="390"></circle><circle r="0.5" cx="386" cy="384"></circle><circle r="1" cx="392" cy="379"></circle><circle r="1" cx="400" cy="378"></circle><circle r="1" cx="408" cy="379"></circle><circle r="1" cx="415" cy="383"></circle><circle r="1" cx="421" cy="389"></circle><circle r="1" cx="424" cy="397"></circle><circle r="1" cx="423" cy="406"></circle><circle r="1" cx="420" cy="414"></circle><circle r="1" cx="414" cy="420"></circle><circle r="1" cx="406" cy="424"></circle><circle r="1" cx="397" cy="425"></circle><circle r="1" cx="389" cy="423"></circle><circle r="1" cx="381" cy="418"></circle><circle r="1" cx="375" cy="410"></circle><circle r="1" cx="373" cy="401"></circle><circle r="1" cx="374" cy="391"></circle><circle r="1" cx="379" cy="382"></circle><circle r="1" cx="386" cy="376"></circle><circle r="1" cx="395" cy="372"></circle><circle r="1" cx="406" cy="372"></circle><circle r="1" cx="415" cy="375"></circle><circle r="1" cx="423" cy="382"></circle><circle r="1" cx="429" cy="391"></circle><circle r="1" cx="430" cy="402"></circle><circle r="1" cx="428" cy="413"></circle><circle r="1" cx="422" cy="422"></circle><circle r="1" cx="413" cy="429"></circle><circle r="1" cx="402" cy="432"></circle><circle r="1" cx="391" cy="431"></circle><circle r="1" cx="380" cy="426"></circle><circle r="1" cx="372" cy="417"></circle><circle r="1" cx="368" cy="406"></circle><circle r="1" cx="367" cy="394"></circle><circle r="1" cx="371" cy="383"></circle><circle r="1" cx="378" cy="374"></circle><circle r="1" cx="389" cy="367"></circle><circle r="1" cx="401" cy="365"></circle><circle r="1" cx="414" cy="367"></circle><circle r="1" cx="424" cy="374"></circle><circle r="1" cx="432" cy="384"></circle><circle r="1" cx="436" cy="397"></circle><circle r="1" cx="435" cy="410"></circle><circle r="1" cx="430" cy="422"></circle><circle r="1" cx="421" cy="431"></circle><circle r="1" cx="408" cy="437"></circle><circle r="1" cx="395" cy="438"></circle><circle r="1" cx="382" cy="434"></circle><circle r="1" cx="371" cy="426"></circle><circle r="1" cx="363" cy="414"></circle><circle r="1" cx="360" cy="400"></circle><circle r="1" cx="363" cy="386"></circle><circle r="1" cx="370" cy="373"></circle><circle r="1" cx="381" cy="364"></circle><circle r="1" cx="395" cy="359"></circle><circle r="1" cx="409" cy="360"></circle><circle r="1" cx="423" cy="365"></circle><circle r="1" cx="434" cy="376"></circle><circle r="1" cx="441" cy="389"></circle><circle r="1" cx="443" cy="404"></circle><circle r="1" cx="439" cy="419"></circle><circle r="1" cx="430" cy="432"></circle><circle r="1" cx="417" cy="441"></circle><circle r="1" cx="401" cy="444"></circle><circle r="1" cx="386" cy="442"></circle><circle r="1" cx="371" cy="435"></circle><circle r="1" cx="361" cy="423"></circle><circle r="1" cx="355" cy="407"></circle><circle r="1" cx="355" cy="391"></circle><circle r="1" cx="361" cy="375"></circle><circle r="1" cx="372" cy="363"></circle><circle r="1" cx="386" cy="355"></circle><circle r="1" cx="403" cy="353"></circle><circle r="1" cx="420" cy="356"></circle><circle r="1" cx="434" cy="366"></circle><circle r="1" cx="444" cy="380"></circle><circle r="1" cx="449" cy="397"></circle><circle r="1" cx="447" cy="414"></circle><circle r="1" cx="439" cy="430"></circle><circle r="1" cx="426" cy="443"></circle><circle r="1" cx="410" cy="449"></circle><circle r="1" cx="392" cy="450"></circle><circle r="1" cx="374" cy="444"></circle><circle r="1" cx="360" cy="433"></circle><circle r="1" cx="351" cy="416"></circle><circle r="1" cx="348" cy="398"></circle><circle r="1" cx="352" cy="380"></circle><circle r="1" cx="362" cy="364"></circle><circle r="1" cx="377" cy="352"></circle><circle r="1" cx="395" cy="347"></circle><circle r="1" cx="414" cy="348"></circle><circle r="1" cx="432" cy="356"></circle><circle r="1" cx="446" cy="370"></circle><circle r="1" cx="454" cy="388"></circle><circle r="1" cx="455" cy="407"></circle><circle r="1.5" cx="449" cy="426"></circle><circle r="1.5" cx="437" cy="442"></circle><circle r="1.5" cx="420" cy="453"></circle><circle r="1.5" cx="400" cy="457"></circle><circle r="1.5" cx="380" cy="453"></circle><circle r="1.5" cx="362" cy="443"></circle><circle r="1.5" cx="349" cy="427"></circle><circle r="1.5" cx="342" cy="407"></circle><circle r="1.5" cx="343" cy="386"></circle><circle r="1.5" cx="351" cy="367"></circle><circle r="1.5" cx="366" cy="352"></circle><circle r="1.5" cx="385" cy="342"></circle><circle r="1.5" cx="406" cy="340"></circle><circle r="1.5" cx="427" cy="346"></circle><circle r="1.5" cx="445" cy="359"></circle><circle r="1.5" cx="457" cy="377"></circle><circle r="1.5" cx="461" cy="398"></circle><circle r="1.5" cx="459" cy="420"></circle><circle r="1.5" cx="448" cy="440"></circle><circle r="1.5" cx="431" cy="454"></circle><circle r="1.5" cx="410" cy="462"></circle><circle r="1.5" cx="387" cy="462"></circle><circle r="1.5" cx="366" cy="454"></circle><circle r="1.5" cx="349" cy="439"></circle><circle r="1.5" cx="338" cy="418"></circle><circle r="1.5" cx="335" cy="395"></circle><circle r="1.5" cx="341" cy="373"></circle><circle r="1.5" cx="354" cy="353"></circle><circle r="1.5" cx="373" cy="340"></circle><circle r="1.5" cx="396" cy="334"></circle><circle r="1.5" cx="420" cy="336"></circle><circle r="1.5" cx="441" cy="347"></circle><circle r="1.5" cx="457" cy="365"></circle><circle r="1.5" cx="466" cy="387"></circle><circle r="1.5" cx="467" cy="411"></circle><circle r="1.5" cx="459" cy="434"></circle><circle r="1.5" cx="443" cy="453"></circle><circle r="1.5" cx="422" cy="466"></circle><circle r="1.5" cx="397" cy="469"></circle><circle r="1.5" cx="373" cy="464"></circle><circle r="1.5" cx="352" cy="451"></circle><circle r="1.5" cx="337" cy="431"></circle><circle r="1.5" cx="329" cy="407"></circle><circle r="1.5" cx="331" cy="381"></circle><circle r="1.5" cx="342" cy="358"></circle><circle r="1.5" cx="360" cy="340"></circle><circle r="1.5" cx="384" cy="329"></circle><circle r="1.5" cx="410" cy="328"></circle><circle r="1.5" cx="435" cy="336"></circle><circle r="1.5" cx="455" cy="352"></circle><circle r="1.5" cx="469" cy="374"></circle><circle r="1.5" cx="474" cy="400"></circle><circle r="1.5" cx="470" cy="427"></circle><circle r="1.5" cx="456" cy="450"></circle><circle r="1.5" cx="435" cy="466"></circle><circle r="1.5" cx="409" cy="475"></circle><circle r="1.5" cx="382" cy="474"></circle><circle r="1.5" cx="357" cy="463"></circle><circle r="1.5" cx="337" cy="444"></circle><circle r="1.5" cx="326" cy="420"></circle><circle r="1.5" cx="323" cy="392"></circle><circle r="1.5" cx="330" cy="365"></circle><circle r="1.5" cx="347" cy="343"></circle><circle r="1.5" cx="370" cy="327"></circle><circle r="1.5" cx="398" cy="321"></circle><circle r="1.5" cx="426" cy="325"></circle><circle r="1.5" cx="451" cy="339"></circle><circle r="1.5" cx="469" cy="360"></circle><circle r="1.5" cx="479" cy="387"></circle><circle r="1.5" cx="479" cy="416"></circle><circle r="1.5" cx="469" cy="443"></circle><circle r="1.5" cx="449" cy="465"></circle><circle r="1.5" cx="423" cy="478"></circle><circle r="1.5" cx="394" cy="482"></circle><circle r="1.5" cx="366" cy="475"></circle><circle r="1.5" cx="341" cy="458"></circle><circle r="1.5" cx="324" cy="434"></circle><circle r="1.5" cx="317" cy="405"></circle><circle r="1.5" cx="320" cy="375"></circle><circle r="1.5" cx="333" cy="348"></circle><circle r="1.5" cx="356" cy="328"></circle><circle r="1.5" cx="384" cy="317"></circle><circle r="1.5" cx="414" cy="316"></circle><circle r="1.5" cx="443" cy="326"></circle><circle r="1.5" cx="467" cy="346"></circle><circle r="1.5" cx="482" cy="373"></circle><circle r="1.5" cx="487" cy="403"></circle><circle r="1.5" cx="480" cy="434"></circle><circle r="1.5" cx="463" cy="460"></circle><circle r="1.5" cx="438" cy="479"></circle><circle r="1.5" cx="408" cy="488"></circle><circle r="1.5" cx="377" cy="485"></circle><circle r="1.5" cx="348" cy="472"></circle><circle r="2" cx="326" cy="449"></circle><circle r="2" cx="313" cy="420"></circle><circle r="2" cx="311" cy="388"></circle><circle r="2" cx="321" cy="357"></circle><circle r="2" cx="341" cy="331"></circle><circle r="2" cx="368" cy="315"></circle><circle r="2" cx="401" cy="309"></circle><circle r="2" cx="433" cy="314"></circle><circle r="2" cx="461" cy="331"></circle><circle r="2" cx="482" cy="357"></circle><circle r="2" cx="492" cy="388"></circle><circle r="2" cx="491" cy="422"></circle><circle r="2" cx="477" cy="452"></circle><circle r="2" cx="454" cy="477"></circle><circle r="2" cx="424" cy="491"></circle><circle r="2" cx="390" cy="494"></circle><circle r="2" cx="357" cy="485"></circle><circle r="2" cx="330" cy="465"></circle><circle r="2" cx="311" cy="436"></circle><circle r="2" cx="304" cy="403"></circle><circle r="2" cx="309" cy="368"></circle><circle r="2" cx="326" cy="338"></circle><circle r="2" cx="352" cy="316"></circle><circle r="2" cx="385" cy="304"></circle><circle r="2" cx="420" cy="304"></circle><circle r="2" cx="452" cy="317"></circle><circle r="2" cx="479" cy="341"></circle><circle r="2" cx="495" cy="372"></circle><circle r="2" cx="499" cy="407"></circle><circle r="2" cx="491" cy="442"></circle><circle r="2" cx="470" cy="471"></circle><circle r="2" cx="441" cy="492"></circle><circle r="2" cx="406" cy="501"></circle><circle r="2" cx="370" cy="497"></circle><circle r="2" cx="338" cy="480"></circle><circle r="2" cx="313" cy="453"></circle><circle r="2" cx="300" cy="419"></circle><circle r="2" cx="299" cy="383"></circle><circle r="2" cx="311" cy="348"></circle><circle r="2" cx="335" cy="320"></circle><circle r="2" cx="367" cy="302"></circle><circle r="2" cx="404" cy="296"></circle><circle r="2" cx="441" cy="304"></circle><circle r="2" cx="472" cy="324"></circle><circle r="2" cx="495" cy="354"></circle><circle r="2" cx="505" cy="390"></circle><circle r="2" cx="502" cy="428"></circle><circle r="2" cx="486" cy="462"></circle><circle r="2" cx="459" cy="489"></circle><circle r="2" cx="424" cy="504"></circle><circle r="2" cx="385" cy="506"></circle><circle r="2" cx="349" cy="495"></circle><circle r="2" cx="318" cy="471"></circle><circle r="2" cx="298" cy="437"></circle><circle r="2" cx="291" cy="399"></circle><circle r="2" cx="298" cy="361"></circle><circle r="2" cx="318" cy="327"></circle><circle r="2" cx="349" cy="303"></circle><circle r="2" cx="386" cy="291"></circle><circle r="2" cx="426" cy="293"></circle><circle r="2" cx="462" cy="308"></circle><circle r="2" cx="491" cy="336"></circle><circle r="2" cx="508" cy="372"></circle><circle r="2" cx="511" cy="412"></circle><circle r="2" cx="500" cy="450"></circle><circle r="2" cx="476" cy="483"></circle><circle r="2" cx="442" cy="505"></circle><circle r="2" cx="403" cy="513"></circle><circle r="2" cx="363" cy="507"></circle><circle r="2" cx="327" cy="488"></circle><circle r="2" cx="300" cy="456"></circle><circle r="2" cx="287" cy="418"></circle><circle r="2" cx="287" cy="377"></circle><circle r="2" cx="302" cy="338"></circle><circle r="2" cx="330" cy="308"></circle><circle r="2" cx="367" cy="288"></circle><circle r="2" cx="409" cy="284"></circle><circle r="2" cx="449" cy="294"></circle><circle r="2" cx="484" cy="318"></circle><circle r="2" cx="508" cy="352"></circle><circle r="2" cx="518" cy="393"></circle><circle r="2" cx="513" cy="435"></circle><circle r="2" cx="494" cy="473"></circle><circle r="2" cx="462" cy="502"></circle><circle r="2" cx="422" cy="517"></circle><circle r="2" cx="380" cy="518"></circle><circle r="2" cx="339" cy="504"></circle><circle r="2" cx="306" cy="476"></circle><circle r="2" cx="285" cy="438"></circle><circle r="2" cx="279" cy="395"></circle><circle r="2" cx="288" cy="353"></circle><circle r="2" cx="312" cy="316"></circle><circle r="2" cx="347" cy="290"></circle><circle r="2" cx="389" cy="278"></circle><circle r="2.5" cx="433" cy="281"></circle><circle r="2.5" cx="473" cy="300"></circle><circle r="2.5" cx="504" cy="332"></circle><circle r="2.5" cx="521" cy="373"></circle><circle r="2.5" cx="523" cy="417"></circle><circle r="2.5" cx="510" cy="460"></circle><circle r="2.5" cx="482" cy="495"></circle><circle r="2.5" cx="443" cy="518"></circle><circle r="2.5" cx="399" cy="526"></circle><circle r="2.5" cx="354" cy="518"></circle><circle r="2.5" cx="316" cy="495"></circle><circle r="2.5" cx="287" cy="459"></circle><circle r="2.5" cx="274" cy="416"></circle><circle r="2.5" cx="276" cy="370"></circle><circle r="2.5" cx="294" cy="328"></circle><circle r="2.5" cx="326" cy="295"></circle><circle r="2.5" cx="368" cy="275"></circle><circle r="2.5" cx="414" cy="272"></circle><circle r="2.5" cx="458" cy="284"></circle><circle r="2.5" cx="496" cy="312"></circle><circle r="2.5" cx="521" cy="351"></circle><circle r="2.5" cx="531" cy="397"></circle><circle r="2.5" cx="524" cy="443"></circle><circle r="2.5" cx="501" cy="484"></circle><circle r="2.5" cx="465" cy="515"></circle><circle r="2.5" cx="420" cy="531"></circle><circle r="2.5" cx="373" cy="530"></circle><circle r="2.5" cx="329" cy="512"></circle><circle r="2.5" cx="294" cy="480"></circle><circle r="2.5" cx="272" cy="438"></circle><circle r="2.5" cx="266" cy="390"></circle><circle r="2.5" cx="278" cy="343"></circle><circle r="2.5" cx="306" cy="304"></circle><circle r="2.5" cx="345" cy="277"></circle><circle r="2.5" cx="392" cy="265"></circle><circle r="2.5" cx="441" cy="271"></circle><circle r="2.5" cx="484" cy="293"></circle><circle r="2.5" cx="517" cy="329"></circle><circle r="2.5" cx="534" cy="375"></circle><circle r="2.5" cx="535" cy="424"></circle><circle r="2.5" cx="518" cy="470"></circle><circle r="2.5" cx="486" cy="507"></circle><circle r="2.5" cx="443" cy="531"></circle><circle r="2.5" cx="394" cy="538"></circle><circle r="2.5" cx="346" cy="528"></circle><circle r="2.5" cx="304" cy="501"></circle><circle r="2.5" cx="274" cy="461"></circle><circle r="2.5" cx="261" cy="412"></circle><circle r="2.5" cx="265" cy="362"></circle><circle r="2.5" cx="286" cy="317"></circle><circle r="2.5" cx="323" cy="282"></circle><circle r="2.5" cx="369" cy="262"></circle><circle r="2.5" cx="420" cy="260"></circle><circle r="2.5" cx="468" cy="275"></circle><circle r="2.5" cx="508" cy="307"></circle><circle r="2.5" cx="534" cy="351"></circle><circle r="2.5" cx="543" cy="401"></circle><circle r="2.5" cx="534" cy="452"></circle><circle r="2.5" cx="507" cy="496"></circle><circle r="2.5" cx="467" cy="528"></circle><circle r="2.5" cx="417" cy="544"></circle><circle r="2.5" cx="366" cy="541"></circle><circle r="2.5" cx="318" cy="520"></circle><circle r="2.5" cx="281" cy="484"></circle><circle r="2.5" cx="258" cy="436"></circle><circle r="2.5" cx="254" cy="384"></circle><circle r="2.5" cx="269" cy="334"></circle><circle r="2.5" cx="300" cy="292"></circle><circle r="2.5" cx="345" cy="263"></circle><circle r="2.5" cx="397" cy="252"></circle><circle r="2.5" cx="449" cy="260"></circle><circle r="2.5" cx="495" cy="286"></circle><circle r="2.5" cx="530" cy="327"></circle><circle r="2.5" cx="548" cy="377"></circle><circle r="2.5" cx="547" cy="431"></circle><circle r="2.5" cx="527" cy="481"></circle><circle r="2.5" cx="490" cy="520"></circle><circle r="2.5" cx="442" cy="545"></circle><circle r="2.5" cx="389" cy="551"></circle><circle r="2.5" cx="336" cy="537"></circle><circle r="2.5" cx="291" cy="506"></circle><circle r="2.5" cx="261" cy="461"></circle><circle r="2.5" cx="248" cy="408"></circle><circle r="2.5" cx="254" cy="354"></circle><circle r="2.5" cx="279" cy="305"></circle><circle r="2.5" cx="320" cy="269"></circle><circle r="2.5" cx="372" cy="249"></circle><circle r="2.5" cx="427" cy="248"></circle><circle r="2.5" cx="479" cy="267"></circle><circle r="2.5" cx="521" cy="303"></circle><circle r="2.5" cx="548" cy="352"></circle><circle r="2.5" cx="556" cy="407"></circle><circle r="2.5" cx="544" cy="461"></circle><circle r="3" cx="513" cy="508"></circle><circle r="3" cx="468" cy="541"></circle><circle r="3" cx="414" cy="557"></circle><circle r="3" cx="358" cy="552"></circle><circle r="3" cx="307" cy="527"></circle><circle r="3" cx="267" cy="487"></circle><circle r="3" cx="245" cy="434"></circle><circle r="3" cx="243" cy="377"></circle><circle r="3" cx="260" cy="323"></circle><circle r="3" cx="296" cy="279"></circle><circle r="3" cx="345" cy="249"></circle><circle r="3" cx="402" cy="239"></circle><circle r="3" cx="458" cy="250"></circle><circle r="3" cx="508" cy="280"></circle><circle r="3" cx="543" cy="325"></circle><circle r="3" cx="561" cy="381"></circle><circle r="3" cx="558" cy="439"></circle><circle r="3" cx="534" cy="492"></circle><circle r="3" cx="493" cy="534"></circle><circle r="3" cx="440" cy="558"></circle><circle r="3" cx="382" cy="563"></circle><circle r="3" cx="326" cy="546"></circle><circle r="3" cx="279" cy="511"></circle><circle r="3" cx="247" cy="461"></circle><circle r="3" cx="235" cy="404"></circle><circle r="3" cx="244" cy="345"></circle><circle r="3" cx="273" cy="293"></circle><circle r="3" cx="319" cy="255"></circle><circle r="3" cx="375" cy="235"></circle><circle r="3" cx="434" cy="237"></circle><circle r="3" cx="490" cy="259"></circle><circle r="3" cx="534" cy="299"></circle><circle r="3" cx="561" cy="353"></circle><circle r="3" cx="568" cy="413"></circle><circle r="3" cx="553" cy="471"></circle><circle r="3" cx="518" cy="521"></circle><circle r="3" cx="468" cy="555"></circle><circle r="3" cx="409" cy="570"></circle><circle r="3" cx="349" cy="562"></circle><circle r="3" cx="295" cy="534"></circle><circle r="3" cx="254" cy="489"></circle><circle r="3" cx="232" cy="431"></circle><circle r="3" cx="231" cy="370"></circle><circle r="3" cx="252" cy="312"></circle><circle r="3" cx="292" cy="265"></circle><circle r="3" cx="346" cy="236"></circle><circle r="3" cx="408" cy="227"></circle><circle r="3" cx="468" cy="241"></circle><circle r="3" cx="520" cy="275"></circle><circle r="3" cx="557" cy="325"></circle><circle r="3" cx="574" cy="385"></circle><circle r="3" cx="568" cy="447"></circle><circle r="3" cx="541" cy="504"></circle><circle r="3" cx="496" cy="547"></circle><circle r="3" cx="438" cy="572"></circle><circle r="3" cx="375" cy="575"></circle><circle r="3" cx="315" cy="555"></circle><circle r="3" cx="265" cy="515"></circle><circle r="3" cx="233" cy="460"></circle><circle r="3" cx="222" cy="398"></circle><circle r="3" cx="234" cy="335"></circle><circle r="3" cx="267" cy="281"></circle><circle r="3" cx="318" cy="241"></circle><circle r="3" cx="379" cy="222"></circle><circle r="3" cx="443" cy="226"></circle><circle r="3" cx="502" cy="252"></circle><circle r="3" cx="548" cy="297"></circle><circle r="3" cx="575" cy="355"></circle><circle r="3" cx="580" cy="420"></circle><circle r="3" cx="562" cy="482"></circle><circle r="3" cx="523" cy="534"></circle><circle r="3" cx="468" cy="569"></circle><circle r="3" cx="404" cy="582"></circle><circle r="3" cx="339" cy="572"></circle><circle r="3" cx="282" cy="540"></circle><circle r="3" cx="240" cy="490"></circle><circle r="3" cx="218" cy="428"></circle><circle r="3" cx="220" cy="362"></circle><circle r="3" cx="244" cy="300"></circle><circle r="3" cx="289" cy="252"></circle><circle r="3" cx="348" cy="222"></circle><circle r="3" cx="415" cy="215"></circle><circle r="3" cx="479" cy="232"></circle><circle r="3" cx="534" cy="270"></circle><circle r="3" cx="571" cy="325"></circle><circle r="3" cx="587" cy="390"></circle><circle r="3" cx="579" cy="457"></circle><circle r="3" cx="548" cy="516"></circle><circle r="3" cx="497" cy="561"></circle><circle r="3" cx="434" cy="585"></circle><circle r="3" cx="367" cy="586"></circle><circle r="3" cx="303" cy="563"></circle><circle r="3" cx="252" cy="518"></circle><circle r="3" cx="219" cy="459"></circle><circle r="3.5" cx="210" cy="391"></circle><circle r="3.5" cx="225" cy="325"></circle><circle r="3.5" cx="262" cy="267"></circle><circle r="3.5" cx="318" cy="227"></circle><circle r="3.5" cx="384" cy="209"></circle><circle r="3.5" cx="452" cy="215"></circle><circle r="3.5" cx="514" cy="245"></circle><circle r="3.5" cx="562" cy="295"></circle><circle r="3.5" cx="589" cy="359"></circle><circle r="3.5" cx="592" cy="428"></circle><circle r="3.5" cx="570" cy="494"></circle><circle r="3.5" cx="526" cy="548"></circle><circle r="3.5" cx="466" cy="583"></circle><circle r="3.5" cx="397" cy="595"></circle><circle r="3.5" cx="329" cy="582"></circle><circle r="3.5" cx="269" cy="545"></circle><circle r="3.5" cx="226" cy="490"></circle><circle r="3.5" cx="205" cy="423"></circle><circle r="3.5" cx="209" cy="353"></circle><circle r="3.5" cx="238" cy="288"></circle><circle r="3.5" cx="287" cy="238"></circle><circle r="3.5" cx="351" cy="208"></circle><circle r="3.5" cx="422" cy="203"></circle><circle r="3.5" cx="490" cy="223"></circle><circle r="3.5" cx="547" cy="266"></circle><circle r="3.5" cx="585" cy="326"></circle><circle r="3.5" cx="600" cy="396"></circle><circle r="3.5" cx="589" cy="467"></circle><circle r="3.5" cx="553" cy="529"></circle><circle r="3.5" cx="498" cy="575"></circle><circle r="3.5" cx="430" cy="599"></circle><circle r="3.5" cx="358" cy="597"></circle><circle r="3.5" cx="291" cy="570"></circle><circle r="3.5" cx="238" cy="521"></circle><circle r="3.5" cx="205" cy="456"></circle><circle r="3.5" cx="198" cy="384"></circle><circle r="3.5" cx="216" cy="313"></circle><circle r="3.5" cx="258" cy="254"></circle><circle r="3.5" cx="318" cy="213"></circle><circle r="3.5" cx="390" cy="196"></circle><circle r="3.5" cx="462" cy="205"></circle><circle r="3.5" cx="527" cy="239"></circle><circle r="3.5" cx="576" cy="294"></circle><circle r="3.5" cx="602" cy="363"></circle><circle r="3.5" cx="603" cy="437"></circle><circle r="3.5" cx="577" cy="506"></circle><circle r="3.5" cx="529" cy="562"></circle><circle r="3.5" cx="464" cy="597"></circle><circle r="3.5" cx="390" cy="607"></circle><circle r="3.5" cx="318" cy="591"></circle><circle r="3.5" cx="255" cy="550"></circle><circle r="3.5" cx="211" cy="490"></circle><circle r="3.5" cx="192" cy="417"></circle><circle r="3.5" cx="198" cy="343"></circle><circle r="3.5" cx="231" cy="275"></circle><circle r="3.5" cx="286" cy="224"></circle><circle r="3.5" cx="355" cy="194"></circle><circle r="3.5" cx="431" cy="191"></circle><circle r="3.5" cx="502" cy="215"></circle><circle r="3.5" cx="561" cy="263"></circle><circle r="3.5" cx="599" cy="328"></circle><circle r="3.5" cx="612" cy="403"></circle><circle r="3.5" cx="598" cy="478"></circle><circle r="3.5" cx="558" cy="543"></circle><circle r="3.5" cx="498" cy="590"></circle><circle r="3.5" cx="425" cy="612"></circle><circle r="3.5" cx="348" cy="608"></circle><circle r="3.5" cx="278" cy="577"></circle><circle r="3.5" cx="223" cy="523"></circle><circle r="3.5" cx="191" cy="453"></circle><circle r="3.5" cx="186" cy="376"></circle><circle r="3.5" cx="208" cy="302"></circle><circle r="3.5" cx="255" cy="240"></circle><circle r="3.5" cx="320" cy="199"></circle><circle r="3.5" cx="396" cy="183"></circle><circle r="3.5" cx="473" cy="195"></circle><circle r="3.5" cx="541" cy="234"></circle><circle r="3.5" cx="591" cy="294"></circle><circle r="3.5" cx="616" cy="368"></circle><circle r="3.5" cx="614" cy="446"></circle><circle r="3.5" cx="584" cy="519"></circle><circle r="3.5" cx="531" cy="576"></circle><circle r="3.5" cx="461" cy="611"></circle><circle r="3.5" cx="382" cy="620"></circle><circle r="3.5" cx="306" cy="600"></circle><circle r="3.5" cx="241" cy="554"></circle><circle r="3.5" cx="197" cy="488"></circle><circle r="3.5" cx="179" cy="411"></circle><circle r="3.5" cx="189" cy="332"></circle><circle r="3.5" cx="226" cy="262"></circle><circle r="3.5" cx="285" cy="209"></circle><circle r="3.5" cx="360" cy="180"></circle><circle r="3.5" cx="440" cy="180"></circle><circle r="4" cx="515" cy="208"></circle><circle r="4" cx="576" cy="260"></circle><circle r="4" cx="614" cy="331"></circle><circle r="4" cx="625" cy="411"></circle><circle r="4" cx="607" cy="490"></circle><circle r="4" cx="562" cy="557"></circle><circle r="4" cx="497" cy="604"></circle><circle r="4" cx="419" cy="626"></circle><circle r="4" cx="338" cy="618"></circle><circle r="4" cx="265" cy="582"></circle><circle r="4" cx="209" cy="523"></circle><circle r="4" cx="177" cy="448"></circle><circle r="4" cx="174" cy="367"></circle><circle r="4" cx="200" cy="289"></circle><circle r="4" cx="252" cy="225"></circle><circle r="4" cx="323" cy="184"></circle><circle r="4" cx="404" cy="170"></circle><circle r="4" cx="484" cy="186"></circle><circle r="4" cx="555" cy="229"></circle><circle r="4" cx="605" cy="295"></circle><circle r="4" cx="630" cy="374"></circle><circle r="4" cx="625" cy="456"></circle><circle r="4" cx="591" cy="532"></circle><circle r="4" cx="532" cy="591"></circle><circle r="4" cx="457" cy="626"></circle><circle r="4" cx="373" cy="631"></circle><circle r="4" cx="293" cy="607"></circle><circle r="4" cx="227" cy="557"></circle><circle r="4" cx="182" cy="486"></circle><circle r="4" cx="166" cy="404"></circle><circle r="4" cx="179" cy="321"></circle><circle r="4" cx="221" cy="248"></circle><circle r="4" cx="286" cy="194"></circle><circle r="4" cx="365" cy="167"></circle><circle r="4" cx="450" cy="169"></circle><circle r="4" cx="528" cy="201"></circle><circle r="4" cx="590" cy="259"></circle><circle r="4" cx="628" cy="335"></circle><circle r="4" cx="637" cy="419"></circle><circle r="4" cx="615" cy="502"></circle><circle r="4" cx="566" cy="571"></circle><circle r="4" cx="495" cy="619"></circle><circle r="4" cx="412" cy="639"></circle><circle r="4" cx="327" cy="628"></circle><circle r="4" cx="251" cy="588"></circle><circle r="4" cx="194" cy="523"></circle><circle r="4" cx="163" cy="443"></circle><circle r="4" cx="163" cy="357"></circle><circle r="4" cx="193" cy="276"></circle><circle r="4" cx="250" cy="211"></circle><circle r="4" cx="326" cy="170"></circle><circle r="4" cx="412" cy="158"></circle><circle r="4" cx="497" cy="177"></circle><circle r="4" cx="569" cy="226"></circle><circle r="4" cx="620" cy="296"></circle><circle r="4" cx="643" cy="380"></circle><circle r="4" cx="635" cy="467"></circle><circle r="4" cx="596" cy="546"></circle><circle r="4" cx="532" cy="606"></circle><circle r="4" cx="452" cy="640"></circle><circle r="4" cx="364" cy="643"></circle><circle r="4" cx="280" cy="615"></circle><circle r="4" cx="212" cy="559"></circle><circle r="4" cx="168" cy="483"></circle><circle r="4" cx="153" cy="396"></circle><circle r="4" cx="170" cy="309"></circle><circle r="4" cx="217" cy="234"></circle><circle r="4" cx="287" cy="179"></circle><circle r="4" cx="372" cy="153"></circle><circle r="4" cx="461" cy="159"></circle><circle r="4" cx="542" cy="195"></circle><circle r="4" cx="605" cy="258"></circle><circle r="4" cx="642" cy="340"></circle><circle r="4" cx="648" cy="429"></circle><circle r="4" cx="623" cy="515"></circle><circle r="4" cx="568" cy="586"></circle><circle r="4" cx="492" cy="634"></circle><circle r="4" cx="404" cy="652"></circle><circle r="4" cx="315" cy="637"></circle><circle r="4" cx="236" cy="592"></circle><circle r="4" cx="179" cy="522"></circle><circle r="4" cx="150" cy="437"></circle><circle r="4" cx="152" cy="346"></circle><circle r="4" cx="187" cy="262"></circle><circle r="4" cx="249" cy="196"></circle><circle r="4" cx="331" cy="155"></circle><circle r="4" cx="421" cy="146"></circle><circle r="4" cx="509" cy="169"></circle><circle r="4" cx="584" cy="223"></circle><circle r="4" cx="635" cy="299"></circle><circle r="4" cx="656" cy="388"></circle><circle r="4" cx="644" cy="479"></circle><circle r="4" cx="601" cy="560"></circle><circle r="4" cx="532" cy="621"></circle><circle r="4.5" cx="446" cy="654"></circle><circle r="4.5" cx="353" cy="654"></circle><circle r="4.5" cx="267" cy="621"></circle><circle r="4.5" cx="197" cy="561"></circle><circle r="4.5" cx="153" cy="479"></circle><circle r="4.5" cx="141" cy="387"></circle><circle r="4.5" cx="162" cy="296"></circle><circle r="4.5" cx="213" cy="219"></circle><circle r="4.5" cx="289" cy="164"></circle><circle r="4.5" cx="379" cy="140"></circle><circle r="4.5" cx="472" cy="149"></circle><circle r="4.5" cx="556" cy="190"></circle><circle r="4.5" cx="621" cy="258"></circle><circle r="4.5" cx="657" cy="345"></circle><circle r="4.5" cx="660" cy="439"></circle><circle r="4.5" cx="630" cy="528"></circle><circle r="4.5" cx="570" cy="601"></circle><circle r="4.5" cx="488" cy="649"></circle><circle r="4.5" cx="395" cy="664"></circle><circle r="4.5" cx="302" cy="646"></circle><circle r="4.5" cx="222" cy="596"></circle><circle r="4.5" cx="164" cy="521"></circle><circle r="4.5" cx="136" cy="430"></circle><circle r="4.5" cx="142" cy="335"></circle><circle r="4.5" cx="181" cy="248"></circle><circle r="4.5" cx="249" cy="180"></circle><circle r="4.5" cx="336" cy="141"></circle><circle r="4.5" cx="431" cy="134"></circle><circle r="4.5" cx="523" cy="162"></circle><circle r="4.5" cx="599" cy="220"></circle><circle r="4.5" cx="650" cy="302"></circle><circle r="4.5" cx="669" cy="396"></circle><circle r="4.5" cx="653" cy="491"></circle><circle r="4.5" cx="605" cy="575"></circle><circle r="4.5" cx="531" cy="636"></circle><circle r="4.5" cx="439" cy="667"></circle><circle r="4.5" cx="342" cy="664"></circle><circle r="4.5" cx="253" cy="627"></circle><circle r="4.5" cx="182" cy="561"></circle><circle r="4.5" cx="138" cy="474"></circle><circle r="4.5" cx="129" cy="377"></circle><circle r="4.5" cx="154" cy="283"></circle><circle r="4.5" cx="211" cy="203"></circle><circle r="4.5" cx="292" cy="149"></circle><circle r="4.5" cx="387" cy="127"></circle><circle r="4.5" cx="485" cy="139"></circle><circle r="4.5" cx="571" cy="186"></circle><circle r="4.5" cx="636" cy="260"></circle><circle r="4.5" cx="671" cy="352"></circle><circle r="4.5" cx="671" cy="450"></circle><circle r="4.5" cx="636" cy="542"></circle><circle r="4.5" cx="571" cy="617"></circle><circle r="4.5" cx="484" cy="663"></circle><circle r="4.5" cx="386" cy="676"></circle><circle r="4.5" cx="289" cy="654"></circle><circle r="4.5" cx="206" cy="599"></circle><circle r="4.5" cx="148" cy="518"></circle><circle r="4.5" cx="123" cy="422"></circle><circle r="4.5" cx="132" cy="323"></circle><circle r="4.5" cx="176" cy="233"></circle><circle r="4.5" cx="249" cy="165"></circle><circle r="4.5" cx="342" cy="126"></circle><circle r="4.5" cx="442" cy="123"></circle><circle r="4.5" cx="537" cy="155"></circle><circle r="4.5" cx="615" cy="219"></circle><circle r="4.5" cx="665" cy="306"></circle><circle r="4.5" cx="681" cy="406"></circle><circle r="4.5" cx="662" cy="505"></circle><circle r="4.5" cx="608" cy="590"></circle><circle r="4.5" cx="528" cy="652"></circle><circle r="4.5" cx="431" cy="681"></circle><circle r="4.5" cx="330" cy="675"></circle><circle r="4.5" cx="238" cy="633"></circle><circle r="4.5" cx="166" cy="561"></circle><circle r="4.5" cx="124" cy="468"></circle><circle r="4.5" cx="117" cy="366"></circle><circle r="4.5" cx="147" cy="269"></circle><circle r="4.5" cx="209" cy="188"></circle><circle r="4.5" cx="296" cy="134"></circle><circle r="4.5" cx="396" cy="114"></circle><circle r="4.5" cx="498" cy="131"></circle><circle r="4.5" cx="586" cy="182"></circle><circle r="4.5" cx="652" cy="261"></circle><circle r="4.5" cx="685" cy="359"></circle><circle r="4.5" cx="681" cy="462"></circle><circle r="4.5" cx="642" cy="557"></circle><circle r="4.5" cx="571" cy="633"></circle><circle r="4.5" cx="478" cy="678"></circle><circle r="4.5" cx="375" cy="688"></circle><circle r="4.5" cx="275" cy="661"></circle><circle r="4.5" cx="191" cy="601"></circle><circle r="4.5" cx="133" cy="514"></circle><circle r="4.5" cx="109" cy="413"></circle><circle r="5" cx="123" cy="310"></circle><circle r="5" cx="172" cy="218"></circle><circle r="5" cx="251" cy="149"></circle><circle r="5" cx="349" cy="112"></circle><circle r="5" cx="454" cy="112"></circle><circle r="5" cx="552" cy="149"></circle><circle r="5" cx="631" cy="219"></circle><circle r="5" cx="680" cy="311"></circle><circle r="5" cx="694" cy="416"></circle><circle r="5" cx="670" cy="518"></circle><circle r="5" cx="611" cy="606"></circle><circle r="5" cx="525" cy="667"></circle><circle r="5" cx="423" cy="695"></circle><circle r="5" cx="317" cy="684"></circle><circle r="5" cx="222" cy="637"></circle><circle r="5" cx="150" cy="560"></circle><circle r="5" cx="109" cy="461"></circle><circle r="5" cx="106" cy="355"></circle><circle r="5" cx="140" cy="254"></circle><circle r="5" cx="208" cy="172"></circle><circle r="5" cx="301" cy="119"></circle><circle r="5" cx="406" cy="101"></circle><circle r="5" cx="511" cy="122"></circle><circle r="5" cx="602" cy="179"></circle><circle r="5" cx="667" cy="264"></circle><circle r="5" cx="698" cy="367"></circle><circle r="5" cx="691" cy="474"></circle><circle r="5" cx="647" cy="572"></circle><circle r="5" cx="570" cy="649"></circle><circle r="5" cx="472" cy="693"></circle><circle r="5" cx="364" cy="700"></circle><circle r="5" cx="261" cy="668"></circle><circle r="5" cx="175" cy="602"></circle><circle r="5" cx="118" cy="510"></circle><circle r="5" cx="97" cy="403"></circle><circle r="5" cx="114" cy="296"></circle><circle r="5" cx="169" cy="202"></circle><circle r="5" cx="253" cy="133"></circle><circle r="5" cx="357" cy="98"></circle><circle r="5" cx="466" cy="102"></circle><circle r="5" cx="567" cy="144"></circle><circle r="5" cx="647" cy="219"></circle><circle r="5" cx="695" cy="317"></circle><circle r="5" cx="706" cy="427"></circle><circle r="5" cx="677" cy="533"></circle><circle r="5" cx="613" cy="622"></circle><circle r="5" cx="521" cy="683"></circle></g></svg>